name C:\Users\u0101727\Documents\MyRepositories\upper-imu-dc\Results\main_tracking\Case_66\kinematics.mot
datacolumns 10
datarows 18
range 5.00000000 5.17000000
endheader 
time	clav_prot	clav_elev	scapula_abduction	scapula_elevation	scapula_upward_rot	scapula_winging	plane_elv	shoulder_elv	axial_rot	
          5.00000000	        -23.83855536	          2.11148958	         -0.80125452	         -4.21800935	         35.91122664	         -1.98709385	         68.74182064	         46.18001232	        -22.87388539	
          5.01000000	        -23.77210730	          1.90875506	         -1.07361084	         -4.26864460	         35.32957552	         -1.81171242	         68.50883874	         45.78150186	        -22.67451784	
          5.02000000	        -23.70939826	          1.70192635	         -1.34413412	         -4.32199576	         34.75478284	         -1.63474084	         68.26392958	         45.38766314	        -22.48250379	
          5.03000000	        -23.64991378	          1.49102371	         -1.61186368	         -4.37812908	         34.18699825	         -1.45625232	         68.00706467	         44.99824471	        -22.29790309	
          5.04000000	        -23.59310954	          1.27614340	         -1.87579813	         -4.43705879	         33.62639598	         -1.27634860	         67.73811600	         44.61294577	        -22.12058344	
          5.05000000	        -23.53843660	          1.05745607	         -2.13494745	         -4.49874770	         33.07316404	         -1.09515854	         67.45691273	         44.23141901	        -21.95017449	
          5.06000000	        -23.48536903	          0.83521270	         -2.38838829	         -4.56310284	         32.52749669	         -0.91283923	         67.16331349	         43.85327144	        -21.78598796	
          5.07000000	        -23.43342922	          0.60975501	         -2.63531251	         -4.62996841	         31.98959170	         -0.72957939	         66.85727722	         43.47806176	        -21.62691505	
          5.08000000	        -23.38220644	          0.38152490	         -2.87506062	         -4.69911939	         31.45965071	         -0.54560316	         66.53891318	         43.10529525	        -21.47133034	
          5.09000000	        -23.33136594	          0.15106727	         -3.10713679	         -4.77025943	         30.93787944	         -0.36117215	         66.20849579	         42.73441957	        -21.31703838	
          5.10000000	        -23.28064815	         -0.08097780	         -3.33120649	         -4.84302498	         30.42448340	         -0.17658342	         65.86644076	         42.36482550	        -21.16129027	
          5.11000000	        -23.22985966	         -0.31389392	         -3.54708123	         -4.91699598	         29.91965742	          0.00783738	         65.51325116	         41.99585598	        -21.00087624	
          5.12000000	        -23.17885857	         -0.54691494	         -3.75469494	         -4.99171081	         29.42357006	          0.19174674	         65.14945106	         41.62682376	        -20.83227398	
          5.13000000	        -23.12753657	         -0.77925270	         -3.95407472	         -5.06668187	         28.93634765	          0.37479492	         64.77552560	         41.25703559	        -20.65181887	
          5.14000000	        -23.07579926	         -1.01012181	         -4.14530769	         -5.14140937	         28.45806076	          0.55663665	         64.39187831	         40.88582073	        -20.45586522	
          5.15000000	        -23.02354657	         -1.23875917	         -4.32850348	         -5.21539296	         27.98871926	          0.73693861	         63.99880812	         40.51255790	        -20.24092627	
          5.16000000	        -22.97064517	         -1.46442825	         -4.50375254	         -5.28813034	         27.52826000	          0.91538360	         63.59649634	         40.13671521	        -20.00378594	
          5.17000000	        -22.91693275	         -1.68647687	         -4.67108431	         -5.35916887	         27.07659294	          1.09167988	         63.18497946	         39.75783190	        -19.74162357	
